<mxfile host="app.diagrams.net" modified="2023-11-19T01:54:07.201Z" agent="Mozilla/5.0 (Macintosh; Intel Mac OS X 10_15_7) AppleWebKit/537.36 (KHTML, like Gecko) Chrome/119.0.0.0 Safari/537.36" etag="x5uZg3AXWP9O4XLb2Dz1" version="22.1.3" type="device">
  <diagram name="Page-1" id="t5M3sde0apToHC27kuUB">
    <mxGraphModel dx="1131" dy="985" grid="1" gridSize="10" guides="1" tooltips="1" connect="1" arrows="1" fold="1" page="1" pageScale="1" pageWidth="850" pageHeight="1100" math="0" shadow="0">
      <root>
        <mxCell id="0" />
        <mxCell id="1" parent="0" />
        <mxCell id="pBzrtVd7T7ac7MqsQFMO-1" style="rounded=0;orthogonalLoop=1;jettySize=auto;html=1;exitX=1;exitY=0.3333333333333333;exitDx=0;exitDy=0;exitPerimeter=0;entryX=0;entryY=0.5;entryDx=0;entryDy=0;" edge="1" parent="1" source="pBzrtVd7T7ac7MqsQFMO-9" target="pBzrtVd7T7ac7MqsQFMO-12">
          <mxGeometry relative="1" as="geometry" />
        </mxCell>
        <mxCell id="pBzrtVd7T7ac7MqsQFMO-2" value="Selects &quot;My Posts&quot;" style="edgeLabel;html=1;align=center;verticalAlign=middle;resizable=0;points=[];" vertex="1" connectable="0" parent="pBzrtVd7T7ac7MqsQFMO-1">
          <mxGeometry x="0.1216" y="-3" relative="1" as="geometry">
            <mxPoint as="offset" />
          </mxGeometry>
        </mxCell>
        <mxCell id="pBzrtVd7T7ac7MqsQFMO-3" style="rounded=0;orthogonalLoop=1;jettySize=auto;html=1;exitX=1;exitY=0.3333333333333333;exitDx=0;exitDy=0;exitPerimeter=0;entryX=0;entryY=1;entryDx=0;entryDy=0;" edge="1" parent="1" source="pBzrtVd7T7ac7MqsQFMO-9" target="pBzrtVd7T7ac7MqsQFMO-12">
          <mxGeometry relative="1" as="geometry">
            <Array as="points">
              <mxPoint x="350" y="400" />
            </Array>
          </mxGeometry>
        </mxCell>
        <mxCell id="pBzrtVd7T7ac7MqsQFMO-4" value="Selects post user wants to delete" style="edgeLabel;html=1;align=center;verticalAlign=middle;resizable=0;points=[];" vertex="1" connectable="0" parent="pBzrtVd7T7ac7MqsQFMO-3">
          <mxGeometry x="-0.5154" y="-8" relative="1" as="geometry">
            <mxPoint x="71" y="-41" as="offset" />
          </mxGeometry>
        </mxCell>
        <mxCell id="pBzrtVd7T7ac7MqsQFMO-5" style="edgeStyle=orthogonalEdgeStyle;rounded=0;orthogonalLoop=1;jettySize=auto;html=1;exitX=1;exitY=0.3333333333333333;exitDx=0;exitDy=0;exitPerimeter=0;entryX=0.5;entryY=1;entryDx=0;entryDy=0;" edge="1" parent="1" source="pBzrtVd7T7ac7MqsQFMO-9" target="pBzrtVd7T7ac7MqsQFMO-12">
          <mxGeometry relative="1" as="geometry" />
        </mxCell>
        <mxCell id="pBzrtVd7T7ac7MqsQFMO-6" value="Delete Post" style="edgeLabel;html=1;align=center;verticalAlign=middle;resizable=0;points=[];" vertex="1" connectable="0" parent="pBzrtVd7T7ac7MqsQFMO-5">
          <mxGeometry x="-0.3359" y="-4" relative="1" as="geometry">
            <mxPoint as="offset" />
          </mxGeometry>
        </mxCell>
        <mxCell id="pBzrtVd7T7ac7MqsQFMO-9" value="Registered User" style="shape=umlActor;verticalLabelPosition=bottom;verticalAlign=top;html=1;outlineConnect=0;" vertex="1" parent="1">
          <mxGeometry x="115" y="430" width="60" height="120" as="geometry" />
        </mxCell>
        <mxCell id="pBzrtVd7T7ac7MqsQFMO-10" style="edgeStyle=orthogonalEdgeStyle;rounded=0;orthogonalLoop=1;jettySize=auto;html=1;exitX=1;exitY=0.5;exitDx=0;exitDy=0;" edge="1" parent="1" source="pBzrtVd7T7ac7MqsQFMO-12" target="pBzrtVd7T7ac7MqsQFMO-14">
          <mxGeometry relative="1" as="geometry" />
        </mxCell>
        <mxCell id="pBzrtVd7T7ac7MqsQFMO-11" value="Remove Post" style="edgeLabel;html=1;align=center;verticalAlign=middle;resizable=0;points=[];" vertex="1" connectable="0" parent="pBzrtVd7T7ac7MqsQFMO-10">
          <mxGeometry x="-0.4624" y="-1" relative="1" as="geometry">
            <mxPoint x="1" y="-1" as="offset" />
          </mxGeometry>
        </mxCell>
        <mxCell id="pBzrtVd7T7ac7MqsQFMO-12" value="Delete Post" style="ellipse;whiteSpace=wrap;html=1;" vertex="1" parent="1">
          <mxGeometry x="420" y="130" width="120" height="80" as="geometry" />
        </mxCell>
        <mxCell id="pBzrtVd7T7ac7MqsQFMO-13" value="D1" style="html=1;dashed=0;whiteSpace=wrap;shape=mxgraph.dfd.dataStoreID;align=left;spacingLeft=3;points=[[0,0],[0.5,0],[1,0],[0,0.5],[1,0.5],[0,1],[0.5,1],[1,1]];" vertex="1" parent="1">
          <mxGeometry x="635" y="270" width="100" height="30" as="geometry" />
        </mxCell>
        <mxCell id="pBzrtVd7T7ac7MqsQFMO-14" value="Posts" style="text;html=1;align=center;verticalAlign=middle;resizable=0;points=[];autosize=1;strokeColor=none;fillColor=none;" vertex="1" parent="1">
          <mxGeometry x="675" y="270" width="50" height="30" as="geometry" />
        </mxCell>
      </root>
    </mxGraphModel>
  </diagram>
</mxfile>
